<svg height="100" width="100" viewBox="0 0 100 100" xmlns="http://www.w3.org/2000/svg">
	<mask id="rounded-edges">
		<rect fill="#000" height="100" width="100" x="0" y="0" />
		<rect fill="#fff" height="100" rx="25" ry="25" width="100" x="0" y="0" />
	</mask>
	<g mask="url(#rounded-edges)">
		<rect fill="#222" x="0" y="0" width="100" height="100" />
		<g transform="scale(0.425,0.425)">
			<path
				d="M 171.19949,64.08864 C 156.36193,38.841783 133.2104,30.169182 118.65241,30.169182 c -14.68543,0 -35.470557,9.19333 -50.242737,34.412229 C 53.637494,89.800312 48.01433,106.78181 48.01433,130.36887 c 0,24.11419 7.155243,43.99461 20.693632,57.49354 12.527019,12.49084 29.797613,19.09354 49.944448,19.09354 20.14683,0 37.41825,-6.60186 49.94527,-19.09353 13.53757,-13.49893 20.69363,-33.37935 20.69363,-57.49354 8.3e-4,-23.53199 -3.25427,-41.033384 -18.09182,-66.28024 z"
				fill="#fff"
				stroke="none"
			/>
		</g>
		<rect
			x="-5"
			y="-5"
			rx="30"
			width="110"
			height="105"
			stroke="#0006"
			stroke-width="10"
			fill="none"
		/>
	</g>
</svg>
