<svg height="100" width="100" viewBox="0 0 100 100" xmlns="http://www.w3.org/2000/svg">
	<defs>
		<g id="b">
			<rect x="0" y="0" width="25" height="25" />
			<path d="m0,0 25,0 -5,5 -15,0 0,15 -5,5 0,-25" fill="#fff3" />
			<path d="m25,25 0,-25 -5,5 0,15 -15,0 -5,5 25,0" fill="#0006" />
			<rect
				x="0"
				y="0"
				width="25"
				height="25"
				stroke="#222"
				stroke-width="4"
				fill="#0000"
			/>
		</g>
	</defs>
	<mask id="rounded-edges">
		<rect fill="#000" height="100" width="100" x="0" y="0" />
		<rect fill="#fff" height="100" rx="25" ry="25" width="100" x="0" y="0" />
	</mask>
	<g mask="url(#rounded-edges)">
		<rect fill="#222" x="0" y="0" width="100" height="100" />
		<g transform="scale(1,0.95)">
			<g transform="rotate(45, 50, 50) scale(0.5) translate(55,45)">
				<g fill="#f90" xmlns:xlink="http://www.w3.org/1999/xlink">
					<use xlink:href="#b" x="0" y="0" />
					<use xlink:href="#b" x="0" y="25" />
					<use xlink:href="#b" x="25" y="25" />
					<use xlink:href="#b" x="25" y="50" />
					<use xlink:href="#b" x="25" y="75" />
					<use xlink:href="#b" x="50" y="75" />
					<use xlink:href="#b" x="75" y="75" />
					<use xlink:href="#b" x="75" y="50" />
				</g>
			</g>
		</g>
		<rect
			x="-5"
			y="-5"
			rx="30"
			width="110"
			height="105"
			stroke="#0006"
			stroke-width="10"
			fill="none"
		/>
	</g>
</svg>
